<svg version="1.1" viewBox="0.0 0.0 24.0 24.0" fill="#FFFFFF" stroke="none" stroke-linecap="square" stroke-miterlimit="10" xmlns:xlink="http://www.w3.org/1999/xlink" xmlns="http://www.w3.org/2000/svg"><clipPath id="p.0"><path d="m0 0l24.0 0l0 24.0l-24.0 0l0 -24.0z" clip-rule="nonzero"/></clipPath><g clip-path="url(#p.0)"><path fill="#FFFFFF" fill-opacity="0.0" d="m0 0l24.0 0l0 24.0l-24.0 0z" fill-rule="evenodd"/><path fill="#FFFFFF" fill-opacity="0.0" d="m3.8273728 0.40828425l22.173227 9.196851l-5.826771 13.984251l-22.17323 -9.19685z" fill-rule="evenodd"/><path fill="#000000" d="m7.252883 13.539509q-0.086596966 -0.035918236 -0.1611743 -0.10068226l-3.5931067 -3.8077765q-0.16600108 -0.17034721 -0.20693421 -0.3564825q-0.034923315 -0.20055771 0.043201685 -0.38805866l0.03605771 -0.086538315q0.07812524 -0.1875 0.23925066 -0.2898264q0.16713524 -0.11675072 0.40525174 -0.11948013l5.2457533 -0.15857506q0.09861565 0.0070724487 0.18521214 0.04298973q0.18762589 0.077822685 0.2634344 0.26150703q0.075808525 0.18368435 -0.002316475 0.3711853q-0.054086685 0.12980747 -0.18876076 0.20927429q-0.13467312 0.07946682 -0.28860664 0.08328247l-4.722626 0.12181759l3.2442589 3.4262638q0.111866 0.097146034 0.1443758 0.26287174q0.03851986 0.15130329 -0.015566826 0.28111076q-0.078125 0.1875 -0.26210642 0.26343155q-0.17797184 0.06150818 -0.36559772 -0.016314507zm1.3178501 2.5426636q-0.18762589 -0.07782173 -0.2634344 -0.26150703q-0.075808525 -0.18368435 0.00832653 -0.38560772q0.024038315 -0.057692528 0.09497166 -0.14668083l6.520009 -7.3605337q0.09738541 -0.11184931 0.23447227 -0.15648365q0.15752888 -0.053071022 0.3307228 0.018764973q0.18762589 0.07782221 0.25742435 0.27592993q0.075808525 0.18368435 -0.0023174286 0.3711853q-0.024038315 0.057691574 -0.0949707 0.14668083l-6.52001 7.3605337q-0.10339451 0.1262722 -0.25491428 0.1649208q-0.13708687 0.044633865 -0.31027985 -0.027202606zm5.6772757 0.3587246q-0.18762589 -0.07782173 -0.2694435 -0.24708366q-0.075808525 -0.1836853 0.002316475 -0.3711853q0.054086685 -0.12980843 0.18876076 -0.20927525q0.14068317 -0.09388924 0.28860664 -0.08328247l4.7370577 -0.115831375l-3.2586908 -3.43225q-0.10585594 -0.111569405 -0.1443758 -0.26287174q-0.03851986 -0.15130234 0.015566826 -0.28111076q0.078125 -0.1875 0.2621069 -0.2634306q0.18398094 -0.07593155 0.37160683 0.0018911362q0.10103035 0.041903496 0.16117477 0.100681305l3.6015282 3.828186q0.15156937 0.164361 0.18649292 0.3649187q0.05536461 0.1921215 -0.022760391 0.37962246l-0.03605652 0.086538315q-0.078125 0.18750095 -0.25969315 0.2982645q-0.16112518 0.10232544 -0.3848095 0.11104202l-5.254176 0.13816643q-0.08418274 -0.0010852814 -0.18521214 -0.04298973z" fill-rule="nonzero"/><path fill="#000000" d="m8.316231 8.595192l0 0c0.21743488 -0.52184296 0.7955866 -0.77566624 1.291338 -0.56692886l0 0c0.23806858 0.10023975 0.42490768 0.29592323 0.51941395 0.54400253c0.094506264 0.2480793 0.08893967 0.5282345 -0.015476227 0.77883244l0 0c-0.21743584 0.5218439 -0.79558754 0.77566624 -1.2913389 0.56692886l0 0c-0.49575138 -0.20873737 -0.72137165 -0.80099106 -0.50393677 -1.322835z" fill-rule="evenodd"/><path fill="#000000" d="m2.3376176 8.596647l0 0c0.21743488 -0.5218439 0.7955868 -0.7756667 1.2913384 -0.56692886l0 0c0.23806834 0.1002388 0.42490697 0.29592228 0.5194137 0.54400253c0.094506264 0.2480793 0.08893919 0.5282335 -0.015476704 0.7788315l0 0c-0.21743488 0.5218439 -0.7955868 0.7756672 -1.2913384 0.5669298l0 0c-0.49575162 -0.20873833 -0.7213719 -0.80099106 -0.503937 -1.322835z" fill-rule="evenodd"/><path fill="#000000" d="m6.406897 12.945399l0 0c0.21743488 -0.52184296 0.79558706 -0.77566624 1.2913384 -0.56692886l0 0c0.23806858 0.10023975 0.42490673 0.29592323 0.51941395 0.54400253c0.094506264 0.2480793 0.08893871 0.5282345 -0.0154771805 0.77883244l0 0c-0.2174344 0.5218439 -0.7955866 0.77566624 -1.291338 0.56692886l0 0c-0.49575186 -0.20873737 -0.7213721 -0.80099106 -0.50393724 -1.322835z" fill-rule="evenodd"/><path fill="#000000" d="m19.348858 15.858139l0 0c0.21743393 -0.5218439 0.79558563 -0.7756672 1.291338 -0.5669298l0 0c0.23806763 0.10023975 0.42490768 0.29592323 0.519413 0.54400253c0.09450722 0.24808025 0.08893967 0.5282335 -0.015476227 0.77883244l0 0c-0.21743393 0.52184296 -0.79558563 0.7756672 -1.291338 0.56692886l0 0c-0.49575233 -0.20873642 -0.7213726 -0.80099106 -0.50393677 -1.322834z" fill-rule="evenodd"/><path fill="#000000" d="m15.388184 11.621332l0 0c0.21743488 -0.5218439 0.79558754 -0.77566624 1.2913399 -0.56692886l0 0c0.23806763 0.1002388 0.42490578 0.29592228 0.519413 0.54400253c0.09450531 0.2480793 0.08893967 0.5282335 -0.015476227 0.7788315l0 0c-0.21743584 0.5218439 -0.79558754 0.7756672 -1.2913389 0.5669298l0 0c-0.49575233 -0.20873737 -0.7213726 -0.80099106 -0.5039377 -1.322835z" fill-rule="evenodd"/><path fill="#000000" d="m13.324366 15.858265l0 0c0.21743488 -0.5218439 0.7955866 -0.7756672 1.2913389 -0.5669298l0 0c0.23806763 0.10023975 0.42490673 0.29592323 0.519413 0.54400253c0.094506264 0.24808025 0.08893967 0.5282335 -0.015476227 0.77883244l0 0c-0.21743488 0.52184296 -0.7955866 0.7756672 -1.2913389 0.56692886l0 0c-0.49575138 -0.20873642 -0.72137165 -0.80099106 -0.50393677 -1.322834z" fill-rule="evenodd"/></g></svg>